<?xml version="1.0" encoding="UTF-8"?>
<svg xmlns="http://www.w3.org/2000/svg" viewBox="0 0 900 520" width="900" height="520" role="img" aria-label="DokOps Architecture Diagram">
  <defs>
    <filter id="sh" x="-10%" y="-10%" width="120%" height="130%">
      <feDropShadow dx="0" dy="2" stdDeviation="6" flood-color="#0000001c"/>
    </filter>
    <marker id="arr" markerWidth="8" markerHeight="7" refX="6" refY="3.5" orient="auto">
      <path d="M0 0 L8 3.5 L0 7 z" fill="#1a7a6e" opacity="0.8"/>
    </marker>
    <marker id="arr-dash" markerWidth="8" markerHeight="7" refX="6" refY="3.5" orient="auto">
      <path d="M0 0 L8 3.5 L0 7 z" fill="#888" opacity="0.7"/>
    </marker>
  </defs>

  <!-- Background cream -->
  <rect width="900" height="520" fill="#f0ede7" rx="12"/>

  <!-- White card -->
  <rect x="16" y="16" width="868" height="488" fill="#ffffff" rx="10" stroke="#e0dbd3" stroke-width="1" filter="url(#sh)"/>

  <!-- HEADER -->
  <rect x="32" y="26" width="28" height="28" rx="6" fill="#1a7a6e"/>
  <text x="46" y="45" text-anchor="middle" fill="#ffffff" font-size="14" font-weight="700" font-family="'Segoe UI',system-ui,sans-serif">D</text>
  <text x="68" y="45" fill="#1c1c1c" font-size="15" font-weight="700" font-family="'Segoe UI',system-ui,sans-serif">DokOps</text>
  <text x="868" y="45" text-anchor="end" fill="#b0aba4" font-size="9" letter-spacing="1.5" font-family="'Segoe UI',system-ui,sans-serif">ARCHITECTURE · V1</text>

  <!-- Section heading -->
  <text x="32" y="80" fill="#1c1c1c" font-size="19" font-weight="700" font-family="'Segoe UI',system-ui,sans-serif">System architecture</text>
  <text x="32" y="97" fill="#c97920" font-size="11" font-family="'Segoe UI',system-ui,sans-serif">How DokOps connects operators, AI providers and infrastructure.</text>
  <line x1="32" y1="107" x2="868" y2="107" stroke="#e8e4df" stroke-width="0.8"/>

  <!-- CONNECTIONS (drawn first, under nodes) -->

  <!-- Developer (dashed) down to center -->
  <line x1="450" y1="148" x2="450" y2="205" stroke="#888" stroke-width="1.4" stroke-dasharray="4 3" opacity="0.6" marker-end="url(#arr-dash)"/>

  <!-- AI Providers to center -->
  <path d="M232 187 C264 187 273 252 295 258" stroke="#1a7a6e" stroke-width="1.6" fill="none" opacity="0.5" marker-end="url(#arr)"/>
  <!-- Kubernetes to center -->
  <path d="M232 293 C265 293 276 272 295 272" stroke="#1a7a6e" stroke-width="1.6" fill="none" opacity="0.5" marker-end="url(#arr)"/>
  <!-- Knowledge Base to center -->
  <path d="M232 399 C264 399 273 288 295 288" stroke="#1a7a6e" stroke-width="1.6" fill="none" opacity="0.5" marker-end="url(#arr)"/>

  <!-- center to Observability -->
  <path d="M605 258 C633 258 644 187 668 187" stroke="#1a7a6e" stroke-width="1.6" fill="none" opacity="0.5" marker-end="url(#arr)"/>
  <!-- center to SSO/Auth -->
  <path d="M605 272 C640 272 648 293 668 293" stroke="#1a7a6e" stroke-width="1.6" fill="none" opacity="0.5" marker-end="url(#arr)"/>
  <!-- center to Workflows -->
  <path d="M605 288 C633 288 644 399 668 399" stroke="#1a7a6e" stroke-width="1.6" fill="none" opacity="0.5" marker-end="url(#arr)"/>

  <!-- Center down to Web UI -->
  <line x1="450" y1="344" x2="450" y2="358" stroke="#1a7a6e" stroke-width="1.8" opacity="0.65" marker-end="url(#arr)"/>

  <!-- DEVELOPER PILL -->
  <rect x="358" y="116" width="184" height="32" rx="16" fill="#fff" stroke="#d4cfc9" stroke-width="1.2"/>
  <circle cx="380" cy="128" r="4" fill="none" stroke="#888" stroke-width="1.2"/>
  <path d="M372.5 137 a8 4 0 0 1 15 0" fill="none" stroke="#888" stroke-width="1.2"/>
  <text x="394" y="132" fill="#555" font-size="11.5" dominant-baseline="middle" font-family="'Segoe UI',system-ui,sans-serif">Developer / On-Call</text>

  <!-- LEFT: AI Providers -->
  <rect x="32" y="148" width="200" height="78" rx="8" fill="#fff" stroke="#e0dbd3" stroke-width="1"/>
  <rect x="46" y="162" width="30" height="30" rx="6" fill="#e8f4f2"/>
  <g transform="translate(61,177)" fill="none" stroke="#2a9d8f" stroke-width="1.8" stroke-linecap="round">
    <line x1="0" y1="-6" x2="0" y2="6"/>
    <line x1="-5.2" y1="-3" x2="5.2" y2="3"/>
    <line x1="5.2" y1="-3" x2="-5.2" y2="3"/>
  </g>
  <text x="84" y="177" fill="#1c1c1c" font-size="13" font-weight="600" dominant-baseline="middle" font-family="'Segoe UI',system-ui,sans-serif">AI Providers</text>
  <rect x="46" y="205" width="42" height="17" rx="4" fill="#f0eeec"/>
  <text x="67" y="217" text-anchor="middle" fill="#666" font-size="9" font-family="'Segoe UI',system-ui,sans-serif">OpenAI</text>
  <rect x="93" y="205" width="70" height="17" rx="4" fill="#f0eeec"/>
  <text x="128" y="217" text-anchor="middle" fill="#666" font-size="9" font-family="'Segoe UI',system-ui,sans-serif">Azure OpenAI</text>
  <rect x="168" y="205" width="44" height="17" rx="4" fill="#f0eeec"/>
  <text x="190" y="217" text-anchor="middle" fill="#666" font-size="9" font-family="'Segoe UI',system-ui,sans-serif">Gemini</text>

  <!-- LEFT: Kubernetes -->
  <rect x="32" y="254" width="200" height="78" rx="8" fill="#fff" stroke="#e0dbd3" stroke-width="1"/>
  <rect x="46" y="268" width="30" height="30" rx="6" fill="#e8f4f2"/>
  <g transform="translate(61,283)" fill="none" stroke="#2a9d8f" stroke-width="1.5" stroke-linecap="round" stroke-linejoin="round">
    <path d="M0,-7 L6,3.5 L-6,3.5 Z"/>
    <line x1="0" y1="-7" x2="0" y2="7"/>
    <line x1="-6" y1="3.5" x2="6" y2="3.5"/>
  </g>
  <text x="84" y="283" fill="#1c1c1c" font-size="13" font-weight="600" dominant-baseline="middle" font-family="'Segoe UI',system-ui,sans-serif">Kubernetes</text>
  <rect x="46" y="311" width="66" height="17" rx="4" fill="#f0eeec"/>
  <text x="79" y="323" text-anchor="middle" fill="#666" font-size="9" font-family="'Segoe UI',system-ui,sans-serif">Multi-cluster</text>
  <rect x="117" y="311" width="34" height="17" rx="4" fill="#f0eeec"/>
  <text x="134" y="323" text-anchor="middle" fill="#666" font-size="9" font-family="'Segoe UI',system-ui,sans-serif">Pods</text>
  <rect x="156" y="311" width="40" height="17" rx="4" fill="#f0eeec"/>
  <text x="176" y="323" text-anchor="middle" fill="#666" font-size="9" font-family="'Segoe UI',system-ui,sans-serif">Nodes</text>

  <!-- LEFT: Knowledge Base -->
  <rect x="32" y="360" width="200" height="78" rx="8" fill="#fff" stroke="#e0dbd3" stroke-width="1"/>
  <rect x="46" y="374" width="30" height="30" rx="6" fill="#e8f4f2"/>
  <g transform="translate(61,389)" fill="none" stroke="#2a9d8f" stroke-width="1.5" stroke-linecap="round" stroke-linejoin="round">
    <rect x="-7" y="-7" width="6" height="6" rx="1"/>
    <rect x="1" y="-7" width="6" height="6" rx="1"/>
    <rect x="-7" y="1" width="6" height="6" rx="1"/>
    <rect x="1" y="1" width="6" height="6" rx="1"/>
  </g>
  <text x="84" y="389" fill="#1c1c1c" font-size="13" font-weight="600" dominant-baseline="middle" font-family="'Segoe UI',system-ui,sans-serif">Knowledge Base</text>
  <rect x="46" y="417" width="68" height="17" rx="4" fill="#f0eeec"/>
  <text x="80" y="429" text-anchor="middle" fill="#666" font-size="9" font-family="'Segoe UI',system-ui,sans-serif">ChromaDB RAG</text>
  <rect x="119" y="417" width="50" height="17" rx="4" fill="#f0eeec"/>
  <text x="144" y="429" text-anchor="middle" fill="#666" font-size="9" font-family="'Segoe UI',system-ui,sans-serif">Runbooks</text>
  <rect x="174" y="417" width="32" height="17" rx="4" fill="#f0eeec"/>
  <text x="190" y="429" text-anchor="middle" fill="#666" font-size="9" font-family="'Segoe UI',system-ui,sans-serif">SOPs</text>

  <!-- CENTER: AI Agent Loop -->
  <rect x="295" y="205" width="310" height="139" rx="10" fill="#1a7a6e"/>
  <rect x="295" y="205" width="310" height="3" rx="1.5" fill="#2dc4af" opacity="0.7"/>

  <!-- Lucide Container icon (exact paths, white) -->
  <g transform="translate(314,224)" fill="none" stroke="#ffffff" stroke-width="1.7" stroke-linecap="round" stroke-linejoin="round" opacity="0.9">
    <path d="M22 7.7c0-.6-.4-1.2-.8-1.5l-6.3-3.9a1.72 1.72 0 0 0-1.7 0l-10.3 6c-.5.2-.9.8-.9 1.4v6.6c0 .5.4 1.2.8 1.5l6.3 3.9a1.72 1.72 0 0 0 1.7 0l10.3-6c.5-.3.9-1 .9-1.5Z"/>
    <path d="M10 21.9V14L2.1 9.1"/>
    <path d="m10 14 11.9-6.9"/>
    <path d="M14 19.8v-8.1"/>
    <path d="M18 17.5V9.4"/>
  </g>

  <text x="346" y="236" fill="#ffffff" font-size="16" font-weight="700" dominant-baseline="middle" font-family="'Segoe UI',system-ui,sans-serif">AI Agent Loop</text>
  <text x="314" y="263" fill="#88cfc7" font-size="10" font-family="'Courier New',monospace,sans-serif">DokOps Core Engine</text>
  <rect x="314" y="291" width="82" height="20" rx="5" fill="#155f55"/>
  <text x="355" y="305" text-anchor="middle" fill="#6dd5ca" font-size="9" font-family="'Segoe UI',system-ui,sans-serif">Function calling</text>
  <rect x="402" y="291" width="73" height="20" rx="5" fill="#155f55"/>
  <text x="438" y="305" text-anchor="middle" fill="#6dd5ca" font-size="9" font-family="'Segoe UI',system-ui,sans-serif">SSE streaming</text>
  <rect x="481" y="291" width="55" height="20" rx="5" fill="#155f55"/>
  <text x="508" y="305" text-anchor="middle" fill="#6dd5ca" font-size="9" font-family="'Segoe UI',system-ui,sans-serif">God mode</text>

  <!-- WEB UI -->
  <rect x="340" y="358" width="220" height="66" rx="8" fill="#fff" stroke="#e0dbd3" stroke-width="1"/>
  <rect x="354" y="370" width="28" height="28" rx="6" fill="#e8f4f2"/>
  <g transform="translate(368,384)" fill="none" stroke="#2a9d8f" stroke-width="1.5" stroke-linecap="round" stroke-linejoin="round">
    <rect x="-9" y="-8" width="18" height="12" rx="2"/>
    <line x1="0" y1="4" x2="0" y2="7"/>
    <line x1="-4" y1="7" x2="4" y2="7"/>
  </g>
  <text x="390" y="384" fill="#1c1c1c" font-size="13" font-weight="600" dominant-baseline="middle" font-family="'Segoe UI',system-ui,sans-serif">Web UI</text>
  <text x="354" y="404" fill="#888" font-size="9.5" font-family="'Segoe UI',system-ui,sans-serif">React 19 · TailwindCSS v4 · Glassmorphism Dark</text>

  <!-- RIGHT: Observability -->
  <rect x="668" y="148" width="200" height="78" rx="8" fill="#fff" stroke="#e0dbd3" stroke-width="1"/>
  <rect x="682" y="162" width="30" height="30" rx="6" fill="#e8f4f2"/>
  <g transform="translate(697,177)" fill="none" stroke="#2a9d8f" stroke-width="1.5" stroke-linecap="round" stroke-linejoin="round">
    <polyline points="-7,6 -3,0 1,3 6,-6"/>
    <line x1="-7" y1="8" x2="7" y2="8"/>
  </g>
  <text x="720" y="177" fill="#1c1c1c" font-size="13" font-weight="600" dominant-baseline="middle" font-family="'Segoe UI',system-ui,sans-serif">Observability</text>
  <rect x="682" y="205" width="55" height="17" rx="4" fill="#f0eeec"/>
  <text x="709" y="217" text-anchor="middle" fill="#666" font-size="9" font-family="'Segoe UI',system-ui,sans-serif">Prometheus</text>
  <rect x="742" y="205" width="42" height="17" rx="4" fill="#f0eeec"/>
  <text x="763" y="217" text-anchor="middle" fill="#666" font-size="9" font-family="'Segoe UI',system-ui,sans-serif">Grafana</text>
  <rect x="789" y="205" width="28" height="17" rx="4" fill="#f0eeec"/>
  <text x="803" y="217" text-anchor="middle" fill="#666" font-size="9" font-family="'Segoe UI',system-ui,sans-serif">Loki</text>

  <!-- RIGHT: SSO / Auth -->
  <rect x="668" y="254" width="200" height="78" rx="8" fill="#fff" stroke="#e0dbd3" stroke-width="1"/>
  <rect x="682" y="268" width="30" height="30" rx="6" fill="#e8f4f2"/>
  <g transform="translate(697,283)" fill="none" stroke="#2a9d8f" stroke-width="1.5" stroke-linecap="round" stroke-linejoin="round">
    <circle cx="-3" cy="0" r="4.5"/>
    <path d="M1.5 0 L8 0 L8 3 M8 0 L6 2"/>
  </g>
  <text x="720" y="283" fill="#1c1c1c" font-size="13" font-weight="600" dominant-baseline="middle" font-family="'Segoe UI',system-ui,sans-serif">SSO / Auth</text>
  <rect x="682" y="311" width="35" height="17" rx="4" fill="#f0eeec"/>
  <text x="699" y="323" text-anchor="middle" fill="#666" font-size="9" font-family="'Segoe UI',system-ui,sans-serif">Entra</text>
  <rect x="722" y="311" width="42" height="17" rx="4" fill="#f0eeec"/>
  <text x="743" y="323" text-anchor="middle" fill="#666" font-size="9" font-family="'Segoe UI',system-ui,sans-serif">Google</text>
  <rect x="769" y="311" width="52" height="17" rx="4" fill="#f0eeec"/>
  <text x="795" y="323" text-anchor="middle" fill="#666" font-size="9" font-family="'Segoe UI',system-ui,sans-serif">JWT RBAC</text>

  <!-- RIGHT: Workflows -->
  <rect x="668" y="360" width="200" height="78" rx="8" fill="#fff" stroke="#e0dbd3" stroke-width="1"/>
  <rect x="682" y="374" width="30" height="30" rx="6" fill="#e8f4f2"/>
  <g transform="translate(697,389)" fill="none" stroke="#2a9d8f" stroke-width="1.5" stroke-linecap="round" stroke-linejoin="round">
    <circle cx="0" cy="0" r="3"/>
    <path d="M0,-7 L0,-3 M0,3 L0,7 M-7,0 L-3,0 M3,0 L7,0"/>
    <path d="M-4.95,-4.95 L-2.12,-2.12 M2.12,2.12 L4.95,4.95 M4.95,-4.95 L2.12,-2.12 M-2.12,2.12 L-4.95,4.95"/>
  </g>
  <text x="720" y="389" fill="#1c1c1c" font-size="13" font-weight="600" dominant-baseline="middle" font-family="'Segoe UI',system-ui,sans-serif">Workflows</text>
  <rect x="682" y="417" width="32" height="17" rx="4" fill="#f0eeec"/>
  <text x="698" y="429" text-anchor="middle" fill="#666" font-size="9" font-family="'Segoe UI',system-ui,sans-serif">Slack</text>
  <rect x="719" y="417" width="26" height="17" rx="4" fill="#f0eeec"/>
  <text x="732" y="429" text-anchor="middle" fill="#666" font-size="9" font-family="'Segoe UI',system-ui,sans-serif">Jira</text>
  <rect x="750" y="417" width="38" height="17" rx="4" fill="#f0eeec"/>
  <text x="769" y="429" text-anchor="middle" fill="#666" font-size="9" font-family="'Segoe UI',system-ui,sans-serif">ArgoCD</text>
  <rect x="793" y="417" width="44" height="17" rx="4" fill="#f0eeec"/>
  <text x="815" y="429" text-anchor="middle" fill="#666" font-size="9" font-family="'Segoe UI',system-ui,sans-serif">Jenkins</text>

  <!-- FOOTER -->
  <line x1="32" y1="460" x2="868" y2="460" stroke="#e8e4df" stroke-width="0.8"/>
  <line x1="32" y1="476" x2="56" y2="476" stroke="#1a7a6e" stroke-width="2"/>
  <text x="61" y="480" fill="#888" font-size="9.5" font-family="'Segoe UI',system-ui,sans-serif">DATA FLOW</text>
  <line x1="120" y1="476" x2="144" y2="476" stroke="#888" stroke-width="1.5" stroke-dasharray="4 3"/>
  <text x="149" y="480" fill="#888" font-size="9.5" font-family="'Segoe UI',system-ui,sans-serif">USER INPUT</text>
  <text x="868" y="480" text-anchor="end" fill="#c97920" font-size="9" letter-spacing="0.5" font-family="'Segoe UI',system-ui,sans-serif">DOKOPS · MAY 2026</text>
</svg>
